<?xml version="1.0" encoding="UTF-8"?>
<svg xmlns="http://www.w3.org/2000/svg" style="display:none" aria-hidden="true">
<defs>
    <symbol id="m-sprout-egg" viewBox="0 0 64 64">
      <ellipse cx="32" cy="58" rx="20" ry="3" fill="#00000030"></ellipse>
      <path d="M32 10 C20 10 14 28 14 40 C14 52 22 58 32 58 C42 58 50 52 50 40 C50 28 44 10 32 10 Z" fill="#c5e1a5" stroke="#558b2f" stroke-width="2"></path>
      <path d="M22 34 Q26 30 30 34" stroke="#558b2f" stroke-width="2" fill="none" stroke-linecap="round"></path>
      <path d="M34 34 Q38 30 42 34" stroke="#558b2f" stroke-width="2" fill="none" stroke-linecap="round"></path>
      <path d="M28 44 Q32 48 36 44" stroke="#558b2f" stroke-width="2" fill="none" stroke-linecap="round"></path>
      <path d="M32 6 Q28 2 24 4 Q28 8 32 10 Q36 8 40 4 Q36 2 32 6" fill="#81c784"></path>
    </symbol>
    <symbol id="m-sprout-baby" viewBox="0 0 64 64">
      <ellipse cx="32" cy="58" rx="18" ry="3" fill="#00000030"></ellipse>
      <ellipse cx="32" cy="42" rx="16" ry="14" fill="#aed581" stroke="#558b2f" stroke-width="2"></ellipse>
      <path d="M18 32 Q10 22 14 18 Q22 22 22 32" fill="#81c784" stroke="#558b2f" stroke-width="1.5"></path>
      <path d="M46 32 Q54 22 50 18 Q42 22 42 32" fill="#81c784" stroke="#558b2f" stroke-width="1.5"></path>
      <circle cx="26" cy="40" r="2.5" fill="#33691e"></circle>
      <circle cx="38" cy="40" r="2.5" fill="#33691e"></circle>
      <circle cx="26.8" cy="39.2" r="0.8" fill="#fff"></circle>
      <circle cx="38.8" cy="39.2" r="0.8" fill="#fff"></circle>
      <circle cx="22" cy="46" r="2" fill="#f48fb1" opacity="0.6"></circle>
      <circle cx="42" cy="46" r="2" fill="#f48fb1" opacity="0.6"></circle>
      <path d="M29 48 Q32 50 35 48" stroke="#33691e" stroke-width="1.5" fill="none" stroke-linecap="round"></path>
      <path d="M32 28 L32 20" stroke="#558b2f" stroke-width="2"></path>
      <circle cx="32" cy="18" r="3" fill="#66bb6a"></circle>
    </symbol>
    <symbol id="m-sprout-adult" viewBox="0 0 64 64">
      <ellipse cx="32" cy="60" rx="20" ry="3" fill="#00000030"></ellipse>
      <rect x="28" y="46" width="8" height="14" fill="#8d6e63" rx="2"></rect>
      <circle cx="22" cy="34" r="14" fill="#66bb6a" stroke="#2e7d32" stroke-width="2"></circle>
      <circle cx="42" cy="34" r="14" fill="#66bb6a" stroke="#2e7d32" stroke-width="2"></circle>
      <circle cx="32" cy="24" r="14" fill="#81c784" stroke="#2e7d32" stroke-width="2"></circle>
      <circle cx="30" cy="52" r="1.5" fill="#3e2723"></circle>
      <circle cx="34" cy="52" r="1.5" fill="#3e2723"></circle>
      <path d="M30 56 Q32 57.5 34 56" stroke="#3e2723" stroke-width="1" fill="none" stroke-linecap="round"></path>
      <circle cx="24" cy="24" r="2" fill="#ffd54f"></circle>
      <circle cx="40" cy="28" r="2" fill="#ff8a65"></circle>
      <circle cx="32" cy="16" r="2" fill="#f48fb1"></circle>
    </symbol>
    <symbol id="m-drop-egg" viewBox="0 0 64 64">
      <ellipse cx="32" cy="58" rx="16" ry="3" fill="#00000030"></ellipse>
      <path d="M32 8 C24 22 18 34 18 44 C18 52 24 58 32 58 C40 58 46 52 46 44 C46 34 40 22 32 8 Z" fill="#b3e5fc" stroke="#0277bd" stroke-width="2"></path>
      <ellipse cx="26" cy="34" rx="3" ry="6" fill="#fff" opacity="0.6"></ellipse>
      <path d="M24 44 L28 42 L26 46 L30 44" stroke="#0277bd" stroke-width="1.2" fill="none"></path>
    </symbol>
    <symbol id="m-drop-baby" viewBox="0 0 64 64">
      <ellipse cx="32" cy="58" rx="18" ry="3" fill="#00000030"></ellipse>
      <path d="M32 14 C20 28 16 40 16 46 C16 54 23 58 32 58 C41 58 48 54 48 46 C48 40 44 28 32 14 Z" fill="#81d4fa" stroke="#0277bd" stroke-width="2"></path>
      <ellipse cx="25" cy="42" rx="3.5" ry="4" fill="#01579b"></ellipse>
      <ellipse cx="39" cy="42" rx="3.5" ry="4" fill="#01579b"></ellipse>
      <circle cx="26" cy="41" r="1.2" fill="#fff"></circle>
      <circle cx="40" cy="41" r="1.2" fill="#fff"></circle>
      <path d="M27 50 Q32 53 37 50" stroke="#01579b" stroke-width="1.5" fill="none" stroke-linecap="round"></path>
    </symbol>
    <symbol id="m-drop-adult" viewBox="0 0 64 64">
      <ellipse cx="32" cy="60" rx="22" ry="3" fill="#00000030"></ellipse>
      <path d="M8 38 Q14 30 22 38 Q30 46 38 38 Q46 30 56 38 L56 56 L8 56 Z" fill="#42a5f5" stroke="#0277bd" stroke-width="2"></path>
      <path d="M32 6 C26 16 22 24 22 30 C22 36 27 40 32 40 C37 40 42 36 42 30 C42 24 38 16 32 6 Z" fill="#81d4fa" stroke="#0277bd" stroke-width="2"></path>
      <circle cx="28" cy="28" r="2" fill="#01579b"></circle>
      <circle cx="36" cy="28" r="2" fill="#01579b"></circle>
      <path d="M28 33 Q32 36 36 33" stroke="#01579b" stroke-width="1.5" fill="none" stroke-linecap="round"></path>
    </symbol>
    <symbol id="p-sunflower" viewBox="0 0 80 100">
      <rect x="38" y="55" width="4" height="42" fill="#388e3c"></rect>
      <path d="M38 70 Q28 65 24 72" stroke="#388e3c" stroke-width="3" fill="none" stroke-linecap="round"></path>
      <path d="M42 78 Q54 74 58 82" stroke="#388e3c" stroke-width="3" fill="none" stroke-linecap="round"></path>
      <ellipse cx="22" cy="70" rx="6" ry="3" fill="#66bb6a" transform="rotate(-30 22 70)"></ellipse>
      <ellipse cx="58" cy="80" rx="6" ry="3" fill="#66bb6a" transform="rotate(30 58 80)"></ellipse>
      <g transform="translate(40 35)">
        <g id="sun-petals">
          <ellipse cx="0" cy="-18" rx="5" ry="11" fill="#ffc107"></ellipse>
        </g>
        <use href="#sun-petals" transform="rotate(45)"></use>
        <use href="#sun-petals" transform="rotate(90)"></use>
        <use href="#sun-petals" transform="rotate(135)"></use>
        <use href="#sun-petals" transform="rotate(180)"></use>
        <use href="#sun-petals" transform="rotate(225)"></use>
        <use href="#sun-petals" transform="rotate(270)"></use>
        <use href="#sun-petals" transform="rotate(315)"></use>
        <circle r="10" fill="#5d4037"></circle>
        <circle r="7" fill="#6d4c41"></circle>
        <circle cx="-2" cy="-2" r="1.5" fill="#8d6e63"></circle>
        <circle cx="2" cy="1" r="1.5" fill="#8d6e63"></circle>
        <circle cx="0" cy="3" r="1.5" fill="#8d6e63"></circle>
      </g>
    </symbol>
    <symbol id="p-cactus" viewBox="0 0 60 80">
      <ellipse cx="30" cy="76" rx="18" ry="3" fill="#00000025"></ellipse>
      <rect x="22" y="30" width="16" height="46" rx="7" fill="#66bb6a" stroke="#2e7d32" stroke-width="2"></rect>
      <rect x="8" y="44" width="10" height="22" rx="5" fill="#66bb6a" stroke="#2e7d32" stroke-width="2"></rect>
      <rect x="42" y="38" width="10" height="26" rx="5" fill="#66bb6a" stroke="#2e7d32" stroke-width="2"></rect>
      <line x1="27" y1="40" x2="27" y2="70" stroke="#2e7d32" stroke-width="1" stroke-dasharray="2 3"></line>
      <line x1="33" y1="40" x2="33" y2="70" stroke="#2e7d32" stroke-width="1" stroke-dasharray="2 3"></line>
      <circle cx="30" cy="28" r="5" fill="#e91e63"></circle>
      <circle cx="30" cy="28" r="2.5" fill="#fff59d"></circle>
    </symbol>
    <symbol id="p-cherry" viewBox="0 0 80 100">
      <rect x="36" y="56" width="8" height="40" fill="#4e342e"></rect>
      <path d="M40 60 Q30 50 22 54" stroke="#4e342e" stroke-width="3" fill="none"></path>
      <path d="M40 64 Q52 56 58 60" stroke="#4e342e" stroke-width="3" fill="none"></path>
      <circle cx="40" cy="34" r="22" fill="#f8bbd0"></circle>
      <circle cx="26" cy="38" r="14" fill="#f48fb1"></circle>
      <circle cx="54" cy="38" r="14" fill="#f48fb1"></circle>
      <circle cx="40" cy="22" r="14" fill="#fce4ec"></circle>
      <circle cx="30" cy="28" r="2" fill="#e91e63"></circle>
      <circle cx="48" cy="32" r="2" fill="#e91e63"></circle>
      <circle cx="42" cy="18" r="2" fill="#e91e63"></circle>
      <circle cx="18" cy="44" r="1.5" fill="#f8bbd0" opacity="0.8"></circle>
      <circle cx="62" cy="48" r="1.5" fill="#f8bbd0" opacity="0.8"></circle>
    </symbol>
    <symbol id="p-maple" viewBox="0 0 80 100">
      <rect x="36" y="62" width="8" height="34" fill="#5d4037"></rect>
      <circle cx="40" cy="42" r="24" fill="#e53935"></circle>
      <circle cx="26" cy="46" r="15" fill="#ff7043"></circle>
      <circle cx="54" cy="44" r="15" fill="#ff9800"></circle>
      <circle cx="40" cy="28" r="14" fill="#ffb300"></circle>
      <circle cx="22" cy="58" r="2" fill="#e53935"></circle>
      <circle cx="60" cy="62" r="2" fill="#ff7043"></circle>
    </symbol>
    <symbol id="p-mushroom-house" viewBox="0 0 80 90">
      <ellipse cx="40" cy="86" rx="24" ry="3" fill="#00000025"></ellipse>
      <rect x="28" y="54" width="24" height="32" rx="3" fill="#fff3e0" stroke="#5d4037" stroke-width="2"></rect>
      <path d="M12 58 Q40 10 68 58 Z" fill="#d32f2f" stroke="#b71c1c" stroke-width="2"></path>
      <circle cx="25" cy="40" r="4" fill="#fff"></circle>
      <circle cx="45" cy="30" r="3.5" fill="#fff"></circle>
      <circle cx="55" cy="48" r="3" fill="#fff"></circle>
      <circle cx="35" cy="52" r="2.5" fill="#fff"></circle>
      <rect x="36" y="66" width="8" height="20" rx="1" fill="#5d4037"></rect>
      <circle cx="42" cy="76" r="1" fill="#ffc107"></circle>
      <rect x="30" y="60" width="5" height="5" fill="#ffeb3b" stroke="#5d4037"></rect>
      <rect x="46" y="60" width="5" height="5" fill="#ffeb3b" stroke="#5d4037"></rect>
    </symbol>
    <symbol id="p-succulent" viewBox="0 0 60 60">
      <rect x="14" y="38" width="32" height="20" rx="2" fill="#8d6e63" stroke="#5d4037" stroke-width="1.5"></rect>
      <rect x="14" y="38" width="32" height="4" fill="#5d4037"></rect>
      <g transform="translate(30 32)">
        <ellipse cx="0" cy="-4" rx="5" ry="11" fill="#81c784"></ellipse>
        <ellipse cx="-8" cy="0" rx="5" ry="10" fill="#66bb6a" transform="rotate(-40 -8 0)"></ellipse>
        <ellipse cx="8" cy="0" rx="5" ry="10" fill="#66bb6a" transform="rotate(40 8 0)"></ellipse>
        <ellipse cx="-5" cy="-8" rx="4" ry="8" fill="#a5d6a7" transform="rotate(-20 -5 -8)"></ellipse>
        <ellipse cx="5" cy="-8" rx="4" ry="8" fill="#a5d6a7" transform="rotate(20 5 -8)"></ellipse>
        <ellipse cx="0" cy="-8" rx="3" ry="6" fill="#c8e6c9"></ellipse>
      </g>
    </symbol>
    <symbol id="p-bamboo" viewBox="0 0 60 100">
      <rect x="14" y="10" width="8" height="86" fill="#7cb342" rx="2"></rect>
      <rect x="32" y="4" width="8" height="92" fill="#9ccc65" rx="2"></rect>
      <rect x="14" y="26" width="8" height="2" fill="#558b2f"></rect>
      <rect x="14" y="50" width="8" height="2" fill="#558b2f"></rect>
      <rect x="14" y="74" width="8" height="2" fill="#558b2f"></rect>
      <rect x="32" y="22" width="8" height="2" fill="#558b2f"></rect>
      <rect x="32" y="46" width="8" height="2" fill="#558b2f"></rect>
      <rect x="32" y="70" width="8" height="2" fill="#558b2f"></rect>
      <ellipse cx="10" cy="20" rx="8" ry="3" fill="#66bb6a" transform="rotate(-30 10 20)"></ellipse>
      <ellipse cx="48" cy="30" rx="8" ry="3" fill="#66bb6a" transform="rotate(30 48 30)"></ellipse>
      <ellipse cx="8" cy="56" rx="8" ry="3" fill="#66bb6a" transform="rotate(-30 8 56)"></ellipse>
      <ellipse cx="50" cy="62" rx="8" ry="3" fill="#66bb6a" transform="rotate(30 50 62)"></ellipse>
    </symbol>
    <symbol id="p-tulip" viewBox="0 0 60 80">
      <rect x="28" y="38" width="4" height="38" fill="#388e3c"></rect>
      <ellipse cx="20" cy="48" rx="9" ry="3" fill="#66bb6a" transform="rotate(-30 20 48)"></ellipse>
      <ellipse cx="40" cy="56" rx="9" ry="3" fill="#66bb6a" transform="rotate(30 40 56)"></ellipse>
      <path d="M22 38 Q22 20 30 16 Q38 20 38 38 Q34 36 30 38 Q26 36 22 38 Z" fill="#e91e63" stroke="#ad1457" stroke-width="1.5"></path>
      <path d="M26 38 Q26 22 30 18 Q34 22 34 38" stroke="#ad1457" stroke-width="1" fill="none"></path>
    </symbol>
    <symbol id="p-tomato" viewBox="0 0 60 80">
      <rect x="28" y="20" width="4" height="56" fill="#388e3c"></rect>
      <line x1="30" y1="40" x2="16" y2="50" stroke="#388e3c" stroke-width="2"></line>
      <line x1="30" y1="30" x2="44" y2="38" stroke="#388e3c" stroke-width="2"></line>
      <ellipse cx="14" cy="52" rx="6" ry="3" fill="#66bb6a" transform="rotate(-20 14 52)"></ellipse>
      <ellipse cx="46" cy="40" rx="6" ry="3" fill="#66bb6a" transform="rotate(20 46 40)"></ellipse>
      <circle cx="18" cy="58" r="6" fill="#e53935"></circle>
      <circle cx="16.5" cy="56.5" r="1.5" fill="#ff8a80"></circle>
      <path d="M16 52 L18 54 L20 52" fill="#388e3c"></path>
      <circle cx="44" cy="48" r="5" fill="#ff7043"></circle>
      <circle cx="38" cy="66" r="7" fill="#e53935"></circle>
      <circle cx="36" cy="64" r="1.5" fill="#ff8a80"></circle>
      <path d="M36 60 L38 62 L40 60" fill="#388e3c"></path>
    </symbol>
    <symbol id="p-pine" viewBox="0 0 80 110">
      <rect x="36" y="82" width="8" height="22" fill="#4e342e"></rect>
      <path d="M40 10 L20 40 L32 40 L16 62 L30 62 L12 88 L68 88 L50 62 L64 62 L48 40 L60 40 Z" fill="#2e7d32" stroke="#1b5e20" stroke-width="1.5"></path>
      <circle cx="30" cy="50" r="2" fill="#ffd54f"></circle>
      <circle cx="48" cy="72" r="2" fill="#ffd54f"></circle>
    </symbol>
    <symbol id="rock" viewBox="0 0 40 24">
      <path d="M4 22 L10 8 L22 4 L34 10 L36 22 Z" fill="#9e9e9e" stroke="#616161" stroke-width="1.5"></path>
    </symbol>
    <symbol id="d-sun" viewBox="0 0 80 80">
      <circle cx="40" cy="40" r="20" fill="#ffc947"/>
      <g stroke="#ffc947" stroke-width="3.5" stroke-linecap="round">
        <line x1="40" y1="10" x2="40" y2="4"/>
        <line x1="40" y1="76" x2="40" y2="70"/>
        <line x1="10" y1="40" x2="4" y2="40"/>
        <line x1="76" y1="40" x2="70" y2="40"/>
        <line x1="18" y1="18" x2="13" y2="13"/>
        <line x1="62" y1="18" x2="67" y2="13"/>
        <line x1="18" y1="62" x2="13" y2="67"/>
        <line x1="62" y1="62" x2="67" y2="67"/>
      </g>
    </symbol>
    <symbol id="d-moon" viewBox="0 0 80 128" shape-rendering="geometricPrecision">
      <!-- Outer circle (30-70 x, 34-74 y), cut by inner arc from top-right -->
      <circle cx="50" cy="54" r="24" fill="#f5e8b8" stroke="#d0c090" stroke-width="1.5"/>
      <circle cx="62" cy="44" r="22" fill="#1a2847"/>
    </symbol>
    <symbol id="d-star" viewBox="0 0 12 12">
      <path d="M6 0 L7.3 4.7 L12 6 L7.3 7.3 L6 12 L4.7 7.3 L0 6 L4.7 4.7 Z" fill="#fff9c4"/>
    </symbol>
    <symbol id="d-stardot" viewBox="0 0 6 6">
      <circle cx="3" cy="3" r="1.5" fill="#fff9c4"/>
    </symbol>
    <symbol id="d-pond" viewBox="0 0 60 28">
      <ellipse cx="30" cy="16" rx="26" ry="10" fill="#7ec0e8" stroke="#4a90c0" stroke-width="1.5"/>
      <ellipse cx="22" cy="13" rx="5" ry="1.2" fill="#a8d8f0" opacity="0.8"/>
      <ellipse cx="38" cy="18" rx="3" ry="1" fill="#a8d8f0" opacity="0.8"/>
      <ellipse cx="32" cy="21" rx="4" ry="0.8" fill="#a8d8f0" opacity="0.6"/>
    </symbol>
    <symbol id="d-sign" viewBox="0 0 36 50">
      <rect x="16" y="26" width="4" height="24" fill="#8b6f47"/>
      <rect x="4" y="6" width="28" height="20" fill="#c49868" stroke="#8b6f47" stroke-width="1.5" rx="2"/>
      <line x1="10" y1="13" x2="26" y2="13" stroke="#8b6f47" stroke-width="1"/>
      <line x1="10" y1="19" x2="22" y2="19" stroke="#8b6f47" stroke-width="1"/>
    </symbol>
    <symbol id="d-swing" viewBox="0 0 60 60">
      <line x1="10" y1="56" x2="18" y2="8" stroke="#5a3a1a" stroke-width="2.5"/>
      <line x1="50" y1="56" x2="42" y2="8" stroke="#5a3a1a" stroke-width="2.5"/>
      <line x1="12" y1="8" x2="48" y2="8" stroke="#8b6f47" stroke-width="3"/>
      <line x1="22" y1="8" x2="22" y2="38" stroke="#8b6f47" stroke-width="1.5"/>
      <line x1="38" y1="8" x2="38" y2="38" stroke="#8b6f47" stroke-width="1.5"/>
      <rect x="16" y="38" width="28" height="4" fill="#a07a50" stroke="#5a3a1a" stroke-width="0.8" rx="1"/>
    </symbol>
</defs>
</svg>
